<svg xmlns="http://www.w3.org/2000/svg" version="1.1" xmlns:xlink="http://www.w3.org/1999/xlink" xmlns:svgjs="http://svgjs.dev/svgjs" width="1500" height="708" viewBox="0 0 1500 708"><g transform="matrix(1,0,0,1,-0.9090909090909918,-0.44635089977151665)"><svg viewBox="0 0 396 187" data-background-color="#ffffff" preserveAspectRatio="xMidYMid meet" height="708" width="1500" xmlns="http://www.w3.org/2000/svg" xmlns:xlink="http://www.w3.org/1999/xlink"><g id="tight-bounds" transform="matrix(1,0,0,1,0.2400000000000091,0.11789211618258832)"><svg viewBox="0 0 395.52 186.76421576763482" height="186.76421576763482" width="395.52"><g><svg viewBox="0 0 395.52 186.76421576763482" height="186.76421576763482" width="395.52"><g><svg viewBox="0 0 395.52 186.76421576763482" height="186.76421576763482" width="395.52"><g id="textblocktransform"><svg viewBox="0 0 395.52 186.76421576763482" height="186.76421576763482" width="395.52" id="textblock"><g><svg viewBox="0 0 395.52 186.76421576763482" height="186.76421576763482" width="395.52"><g transform="matrix(1,0,0,1,0,0)"><svg width="395.52" viewBox="1.8 -34.4 120.48 56.9" height="186.76421576763482" data-palette-color="#010c80"><path d="M13.2-25.3L13.2-25.3Q12.8-25.1 12.3-24.55L12.3-24.55Q3.1-7.4 3.1-2.5L3.1-2.5Q3.1-0.85 4.2-0.85L4.2-0.85Q5.6-0.85 8.1-3.05L8.1-3.05Q8.5-3.4 8.68-3.55 8.85-3.7 8.8-3.7L8.8-3.7Q9-3.7 9-3.55 9-3.4 8.8-3.1L8.8-3.1Q6.6 0 4.3 0L4.3 0Q1.8 0 1.8-2.65 1.8-5.3 4.35-12.2L4.35-12.2Q3.1-10.5 2.6-10.5L2.6-10.5Q2.45-10.5 2.45-10.6 2.45-10.7 3.78-12.43 5.1-14.15 5.2-14.35L5.2-14.35Q6.75-18.85 9.85-25.15 12.95-31.45 14.1-33.55L14.1-33.55Q14.5-34.4 15.78-34.4 17.05-34.4 17.05-34.05 17.05-33.7 13.2-25.3ZM23.65-6.8L23.65-6.8Q23.7-6.8 23.7-6.65 23.7-6.5 23.3-5.8L23.3-5.8Q21.75-3.3 18.8-1.18 15.85 0.95 13.25 0.95L13.25 0.95Q9.7 0.95 9.7-3.65L9.7-3.65Q9.7-5.2 10.05-6.95L10.05-6.95Q9.6-7.35 9.25-8.05L9.25-8.05Q9.3-8 9.5-7.93 9.7-7.85 9.87-7.78 10.05-7.7 10.25-7.65L10.25-7.65Q10.75-10.1 13.3-12.7 15.85-15.3 18.25-15.3L18.25-15.3Q18.8-15.3 18.8-15.18 18.8-15.05 18.1-14.65L18.1-14.65Q16.25-13.65 14.65-11.55L14.65-11.55Q12.95-9.45 12.2-7.35L12.2-7.35 12.3-7.25Q14.7-7.25 17.3-9.55 19.9-11.85 19.9-14.25L19.9-14.25Q19.9-14.95 19.52-15.58 19.15-16.2 18.3-16.2 17.45-16.2 16.17-15.43 14.9-14.65 14.77-14.65 14.65-14.65 14.65-14.7L14.65-14.7Q14.65-15.3 16.27-15.95 17.9-16.6 18.92-16.6 19.95-16.6 20.7-15.95 21.45-15.3 21.45-14.15L21.45-14.15Q21.45-11.5 18.17-9.15 14.9-6.8 12-6.55L12-6.55Q11.6-5.35 11.6-4.25L11.6-4.25Q11.6-0.1 14.6-0.1L14.6-0.1Q16.9-0.1 19.2-1.93 21.5-3.75 22.9-6.1L22.9-6.1Q23.35-6.8 23.65-6.8ZM40.89-16.1L40.89-16.1Q40.89-15.25 32.45-12.85L32.45-12.85Q30.2-8.5 29.7-7.3L29.7-7.3Q28.39-4.2 28.39-1.35L28.39-1.35Q28.39 0.3 29.5 0.3L29.5 0.3Q30.84 0.3 33.05-1.6L33.05-1.6 35.3-3.55Q35.45-3.55 35.45-3.4 35.45-3.25 35.3-2.95L35.3-2.95Q34.5-1.75 32.59-0.28 30.7 1.2 29.59 1.2L29.59 1.2Q27.09 1.2 27.09-1.85L27.09-1.85Q27.09-4.05 28.2-7.3L28.2-7.3Q27.7-8.7 26.2-9.35L26.2-9.35Q25.75-9.55 24.84-9.9 23.95-10.25 23.39-10.5 22.84-10.75 22.84-11.53 22.84-12.3 23.54-12.45L23.54-12.45 24.89-12.45Q27.5-12.45 30.45-13.05L30.45-13.05 35.25-23.8Q35.59-24.7 36.92-24.7 38.25-24.7 38.25-24.2L38.25-24.2Q38.25-24.05 36.37-19.93 34.5-15.8 34.3-15.6L34.3-15.6 33.45-14.8 32.84-13.6Q34.05-13.95 40.14-16.1L40.14-16.1Q40.64-16.2 40.77-16.2 40.89-16.2 40.89-16.1ZM30.09-12.2L30.09-12.2Q27.3-11.55 25.04-11.2L25.04-11.2Q27.64-9.85 28.39-8L28.39-8Q28.89-9.4 30.09-12.2ZM49.69-7.45Q49.84-7.45 49.84-7.25 49.84-7.05 49.74-6.9L49.74-6.9Q48.04-4.05 45.54-3.55L45.54-3.55Q45.39-1.8 44.47-0.6 43.54 0.6 41.47 0.6 39.39 0.6 37.54-1.38 35.69-3.35 35.69-5.7L35.69-5.7Q35.69-7.25 36.49-7.25L36.49-7.25Q36.99-7.25 37.49-6.5L37.49-6.5Q38.99-10 41.74-14.4L41.74-14.4Q43.49-17.1 45.84-17.1L45.84-17.1Q46.34-17.1 47.02-16.73 47.69-16.35 47.69-15.9L47.69-15.9Q47.69-15.55 47.27-15.55 46.84-15.55 46.64-15.6L46.64-15.6 46.24-15.6Q45.09-15.6 44.27-14.93 43.44-14.25 43.44-13.53 43.44-12.8 43.59-12.35L43.59-12.35 44.79-8.35Q45.49-5.85 45.49-4.25L45.49-4.25Q46.84-4.45 47.62-5.1 48.39-5.75 49.39-7.25L49.39-7.25Q49.54-7.45 49.69-7.45ZM43.44-3.6L43.44-3.6Q43.49-3.85 43.49-4.65 43.49-5.45 42.77-8.4 42.04-11.35 42.04-12.1 42.04-12.85 42.09-13.05L42.09-13.05Q40.79-11.7 37.84-5.85L37.84-5.85Q39.94-4.65 40.99-4.17 42.04-3.7 43.44-3.6ZM40.74-1.05L40.74-1.05Q42.69-1.05 43.39-3L43.39-3Q39.39-3 37.29-4.65L37.29-4.65Q37.39-3.5 38.49-2.27 39.59-1.05 40.74-1.05ZM54.39-8.43Q54.14-8.4 53.99-8.38 53.84-8.35 53.74-8.35L53.74-8.35 53.54-8.35Q53.39-8.35 53.04-8.8 52.69-9.25 52.59-9.5L52.59-9.5 52.69-9.6Q55.24-9.9 58.14-9.9 61.04-9.9 62.84-9.35L62.84-9.35Q62.99-9.3 62.99-9.1 62.99-8.9 62.69-8.9L62.69-8.9Q59.99-8.9 58.02-8.72 56.04-8.55 55.64-8.53 55.24-8.5 54.94-8.47 54.64-8.45 54.39-8.43ZM81.49-16.1L81.49-16.1Q81.49-15.25 73.04-12.85L73.04-12.85Q70.79-8.5 70.29-7.3L70.29-7.3Q68.99-4.2 68.99-1.35L68.99-1.35Q68.99 0.3 70.09 0.3L70.09 0.3Q71.44 0.3 73.64-1.6L73.64-1.6 75.89-3.55Q76.04-3.55 76.04-3.4 76.04-3.25 75.89-2.95L75.89-2.95Q75.09-1.75 73.19-0.28 71.29 1.2 70.19 1.2L70.19 1.2Q67.69 1.2 67.69-1.85L67.69-1.85Q67.69-4.05 68.79-7.3L68.79-7.3Q68.29-8.7 66.79-9.35L66.79-9.35Q66.34-9.55 65.44-9.9 64.54-10.25 63.99-10.5 63.44-10.75 63.44-11.53 63.44-12.3 64.14-12.45L64.14-12.45 65.49-12.45Q68.09-12.45 71.04-13.05L71.04-13.05 75.84-23.8Q76.19-24.7 77.51-24.7 78.84-24.7 78.84-24.2L78.84-24.2Q78.84-24.05 76.96-19.93 75.09-15.8 74.89-15.6L74.89-15.6 74.04-14.8 73.44-13.6Q74.64-13.95 80.74-16.1L80.74-16.1Q81.24-16.2 81.36-16.2 81.49-16.2 81.49-16.1ZM70.69-12.2L70.69-12.2Q67.89-11.55 65.64-11.2L65.64-11.2Q68.24-9.85 68.99-8L68.99-8Q69.49-9.4 70.69-12.2ZM95.69-19.8L95.69-19.8Q95.69-19.65 95.24-19.53 94.79-19.4 94.29-19.15L94.29-19.15Q92.04-17.55 90.39-10.6L90.39-10.6Q87.89 0.05 87.79 0.3L87.79 0.3Q85.84 7.25 83.59 11.3L83.59 11.3Q80.49 16.8 76.09 19.25L76.09 19.25Q74.04 20.4 71.49 20.4 68.94 20.4 65.89 18.1 62.84 15.8 62.84 13.3L62.84 13.3Q62.84 13.1 62.96 13.1 63.09 13.1 63.24 13.4L63.24 13.4Q65.34 18.65 70.84 18.65L70.84 18.65Q73.64 18.65 76.04 17.3L76.04 17.3Q80.69 14.7 83.29 9.15L83.29 9.15Q84.94 5.4 86.34-1.55L86.34-1.55Q87.54-8 88.39-11.1L88.39-11.1 89.24-14.2Q86.09-11.75 81.69-0.15L81.69-0.15Q81.69-0.05 81.39-0.05 81.09-0.05 80.71-0.43 80.34-0.8 80.34-1.15L80.34-1.15 81.19-3.25Q82.14-6.05 82.14-11.45L82.14-11.45Q82.14-15.55 80.39-15.55L80.39-15.55Q79.44-15.55 78.04-14.3L78.04-14.3 76.64-13Q76.49-13 76.49-13.13 76.49-13.25 76.59-13.55L76.59-13.55Q77.29-14.65 78.89-15.8 80.49-16.95 81.59-16.95L81.59-16.95Q83.69-16.95 83.69-12.9L83.69-12.9Q83.69-9.6 82.34-5.6L82.34-5.6Q86.49-13.25 89.39-14.75L89.39-14.75Q90.14-17.45 91.09-18.55L91.09-18.55Q92.34-20.1 94.79-20.1L94.79-20.1Q95.69-20.1 95.69-19.8ZM104.23-9.2L104.23-9.2Q106.43-6.1 106.43-4.03 106.43-1.95 104.71-0.9 102.98 0.15 101.36 0.15 99.73 0.15 97.93-0.53 96.13-1.2 96.13-2.15L96.13-2.15 96.18-2.3Q96.13-2.25 96.28-2.15L96.28-2.15Q96.63-1.95 97.96-1.3 99.28-0.65 100.61-0.65 101.93-0.65 103.06-1.45 104.18-2.25 104.18-3.5L104.18-3.5Q104.18-6.75 99.73-11.75L99.73-11.75Q94.08 1.4 92.51 5.28 90.93 9.15 90.21 11.83 89.48 14.5 89.48 17.45L89.48 17.45Q89.48 21.9 92.38 21.9L92.38 21.9Q94.28 21.9 96.98 20.25L96.98 20.25Q96.48 21.15 95.06 21.83 93.63 22.5 92.68 22.5L92.68 22.5Q90.28 22.5 88.41 20.63 86.53 18.75 86.53 16.45 86.53 14.15 87.46 11.75 88.38 9.35 90.08 5.75 91.78 2.15 99.08-12.6L99.08-12.6Q96.33-16.55 96.33-19.3 96.33-22.05 98.53-22.05L98.53-22.05Q101.38-22.05 101.38-18.6L101.38-18.6Q101.38-16.9 100.38-13.8L100.38-13.8Q102.98-10.95 104.23-9.2ZM99.83-14.25L99.83-14.25Q100.68-16.25 100.68-18.88 100.68-21.5 98.83-21.5L98.83-21.5Q97.98-21.5 97.98-19.7L97.98-19.7Q97.98-16.9 99.83-14.25ZM122.23-6.8L122.23-6.8Q122.28-6.8 122.28-6.65 122.28-6.5 121.88-5.8L121.88-5.8Q120.33-3.3 117.38-1.18 114.43 0.95 111.83 0.95L111.83 0.95Q108.28 0.95 108.28-3.65L108.28-3.65Q108.28-5.2 108.63-6.95L108.63-6.95Q108.18-7.35 107.83-8.05L107.83-8.05Q107.88-8 108.08-7.93 108.28-7.85 108.46-7.78 108.63-7.7 108.83-7.65L108.83-7.65Q109.33-10.1 111.88-12.7 114.43-15.3 116.83-15.3L116.83-15.3Q117.38-15.3 117.38-15.18 117.38-15.05 116.68-14.65L116.68-14.65Q114.83-13.65 113.23-11.55L113.23-11.55Q111.53-9.45 110.78-7.35L110.78-7.35 110.88-7.25Q113.28-7.25 115.88-9.55 118.48-11.85 118.48-14.25L118.48-14.25Q118.48-14.95 118.11-15.58 117.73-16.2 116.88-16.2 116.03-16.2 114.76-15.43 113.48-14.65 113.36-14.65 113.23-14.65 113.23-14.7L113.23-14.7Q113.23-15.3 114.86-15.95 116.48-16.6 117.51-16.6 118.53-16.6 119.28-15.95 120.03-15.3 120.03-14.15L120.03-14.15Q120.03-11.5 116.76-9.15 113.48-6.8 110.58-6.55L110.58-6.55Q110.18-5.35 110.18-4.25L110.18-4.25Q110.18-0.1 113.18-0.1L113.18-0.1Q115.48-0.1 117.78-1.93 120.08-3.75 121.48-6.1L121.48-6.1Q121.93-6.8 122.23-6.8Z" opacity="1" transform="matrix(1,0,0,1,0,0)" fill="#010c80" class="wordmark-text-0" data-fill-palette-color="primary" id="text-0"></path></svg></g></svg></g></svg></g></svg></g></svg></g><defs></defs></svg><rect width="395.52" height="186.76421576763482" fill="none" stroke="none" visibility="hidden"></rect></g></svg></g></svg>